<svg width="107" height="66" viewBox="0 0 107 66" fill="none" xmlns="http://www.w3.org/2000/svg">
<path d="M63.49 55.65C63.49 55.65 65.02 52.89 68.08 47.37C71.14 41.79 74.53 35.7 78.25 29.1C81.85 22.62 85.15 16.74 88.15 11.46C91.21 6.12 92.8 3.51 92.92 3.63V65.82C92.92 65.82 92.83 65.82 92.65 65.82C92.53 65.82 92.32 65.82 92.02 65.82C91.54 65.82 90.91 65.82 90.13 65.82C89.35 65.82 88.57 65.82 87.79 65.82C87.19 65.82 86.59 65.85 85.99 65.91C85.45 65.91 84.94 65.91 84.46 65.91V21.45C84.46 21.45 82.99 24.18 80.05 29.64C77.11 35.1 73.9 41.1 70.42 47.64C68.68 50.88 66.97 54.06 65.29 57.18C63.61 60.24 62.11 63 60.79 65.46L59.71 65.37C58.51 62.97 57.1 60.27 55.48 57.27C53.86 54.27 52.18 51.21 50.44 48.09C50.26 47.73 50.05 47.37 49.81 47.01C49.63 46.65 49.42 46.29 49.18 45.93C45.76 39.87 42.61 34.44 39.73 29.64C36.91 24.84 35.5 22.44 35.5 22.44V66H34.33V3.45L63.49 55.65Z" fill="#FEFEFE"/>
<ellipse cx="19.612" cy="8.79999" rx="2.02163" ry="2" fill="#FEFEFE"/>
<path d="M19.612 0L18.8034 7.2L17.9947 8L10.3125 8.8L17.9947 9.6L18.8034 10.4L19.612 18L20.4207 10.4L21.2293 9.6L28.1029 8.8L21.2293 8L20.4207 7.2L19.612 0Z" fill="#FEFEFE"/>
<ellipse cx="7.23296" cy="23.8445" rx="1.57238" ry="1.55556" fill="#FEFEFE"/>
<path d="M7.23296 17L6.60401 22.6L5.97505 23.2222L0 23.8444L5.97505 24.4667L6.60401 25.0889L7.23296 31L7.86191 25.0889L8.49087 24.4667L13.837 23.8444L8.49087 23.2222L7.86191 22.6L7.23296 17Z" fill="#FEFEFE"/>
<ellipse cx="104.734" cy="63.7586" rx="2.26562" ry="2.24138" fill="#FEFEFE"/>
</svg>
