<svg width="24" height="24" viewBox="0 0 24 24" fill="none" xmlns="http://www.w3.org/2000/svg">
<path d="M6.61625 5.26374C6.43906 5.09259 6.20173 4.99789 5.95539 5.00004C5.70905 5.00218 5.47341 5.10099 5.29921 5.27518C5.12501 5.44938 5.02621 5.68502 5.02406 5.93136C5.02192 6.1777 5.11662 6.41503 5.28777 6.59223L10.7135 12.018L5.28683 17.4437C5.19709 17.5304 5.12552 17.6341 5.07628 17.7487C5.02704 17.8633 5.00112 17.9866 5.00004 18.1114C4.99895 18.2361 5.02272 18.3598 5.06996 18.4753C5.1172 18.5908 5.18697 18.6957 5.27518 18.7839C5.3634 18.8721 5.4683 18.9419 5.58376 18.9891C5.69922 19.0363 5.82294 19.0601 5.94769 19.059C6.07244 19.0579 6.19572 19.032 6.31035 18.9828C6.42498 18.9335 6.52865 18.862 6.61532 18.7722L12.042 13.3465L17.4678 18.7722C17.645 18.9434 17.8823 19.0381 18.1286 19.0359C18.375 19.0338 18.6106 18.935 18.7848 18.7608C18.959 18.5866 19.0578 18.3509 19.06 18.1046C19.0621 17.8583 18.9674 17.6209 18.7963 17.4437L13.3705 12.018L18.7963 6.59223C18.9674 6.41503 19.0621 6.1777 19.06 5.93136C19.0578 5.68502 18.959 5.44938 18.7848 5.27518C18.6106 5.10099 18.375 5.00218 18.1286 5.00004C17.8823 4.99789 17.645 5.09259 17.4678 5.26374L12.042 10.6895L6.61625 5.2628V5.26374Z" fill="#FEFEFE"/>
</svg>
