<svg width="32" height="32" viewBox="0 0 32 32" fill="none" xmlns="http://www.w3.org/2000/svg">
<rect x="6" y="7" width="18" height="18" fill="#FEFEFE"/>
<path d="M16.015 0.640015C7.52353 0.640015 0.640015 7.52353 0.640015 16.015C0.640015 24.5065 7.52353 31.39 16.015 31.39C24.5065 31.39 31.39 24.5065 31.39 16.015C31.39 7.52353 24.5065 0.640015 16.015 0.640015ZM12.2513 22.3876H9.1379V12.3683H12.2513V22.3876ZM10.6754 11.1383C9.69205 11.1383 9.05622 10.4416 9.05622 9.57994C9.05622 8.70068 9.71126 8.02482 10.7154 8.02482C11.7196 8.02482 12.3346 8.70068 12.3538 9.57994C12.3538 10.4416 11.7196 11.1383 10.6754 11.1383ZM23.6224 22.3876H20.509V16.835C20.509 15.5426 20.0574 14.6649 18.9315 14.6649C18.0714 14.6649 17.5605 15.2591 17.3347 15.8308C17.2514 16.0342 17.2306 16.3225 17.2306 16.6092V22.386H14.1156V15.5634C14.1156 14.3126 14.0755 13.2667 14.0339 12.3667H16.7389L16.8815 13.7584H16.9439C17.3539 13.105 18.3581 12.1408 20.0381 12.1408C22.0865 12.1408 23.6224 13.5134 23.6224 16.4635V22.3876Z" fill="#014D92"/>
</svg>
