<svg width="32" height="32" viewBox="0 0 32 32" fill="none" xmlns="http://www.w3.org/2000/svg">
<rect x="7" y="7" width="18" height="18" fill="#FEFEFE"/>
<path d="M18.5823 15.7476L14.9852 14.0691C14.6713 13.9234 14.4135 14.0867 14.4135 14.4343V17.5958C14.4135 17.9433 14.6713 18.1067 14.9852 17.9609L18.5807 16.2825C18.8962 16.1351 18.8962 15.8949 18.5823 15.7476ZM16.015 0.640015C7.52353 0.640015 0.640015 7.52353 0.640015 16.015C0.640015 24.5065 7.52353 31.39 16.015 31.39C24.5065 31.39 31.39 24.5065 31.39 16.015C31.39 7.52353 24.5065 0.640015 16.015 0.640015ZM16.015 22.2611C8.14494 22.2611 8.0072 21.5516 8.0072 16.015C8.0072 10.4784 8.14494 9.76892 16.015 9.76892C23.8851 9.76892 24.0228 10.4784 24.0228 16.015C24.0228 21.5516 23.8851 22.2611 16.015 22.2611Z" fill="#992B25"/>
</svg>
