<?xml version="1.0" encoding="utf-8"?>
<!-- Generator: Adobe Illustrator 23.0.6, SVG Export Plug-In . SVG Version: 6.00 Build 0)  -->
<svg version="1.1" id="Calque_1" xmlns="http://www.w3.org/2000/svg" xmlns:xlink="http://www.w3.org/1999/xlink" x="0px" y="0px"
	 viewBox="0 0 396.85 396.85" style="enable-background:new 0 0 396.85 396.85;" xml:space="preserve">
<style type="text/css">
	.st0{fill:#FFFFFF;stroke:#000000;stroke-miterlimit:8;}
	.st1{fill:#0063AF;}
	.st2{fill:#38B6AB;}
	.st3{stroke:#000000;stroke-width:0.5;stroke-miterlimit:8;}
	.st4{stroke:#000000;stroke-width:0.3;stroke-miterlimit:8;}
	.st5{fill:none;stroke:#38B6AB;stroke-width:1.5;stroke-miterlimit:8;}
	.st6{fill:none;stroke:#0063AF;stroke-width:1.5;stroke-miterlimit:8;}
</style>
<rect x="69.94" y="67.16" class="st0" width="259.37" height="259.37"/>
<g>
	<path class="st1" d="M137.37,175.9c4.35,0.18,9.78-7.25,6.71-14.68c10.69-3.63,16.62-0.18,16.62-0.18s16.72,21.87,10.38,47.06
		c18.16-18.46,0.85-50.45,0.92-50.47c3.51-1.8,4.07-4.86,4.24-8.56c0.01-0.03,24.02-3.43,28-9.23l1.99,11.42
		c-10.51,9.06-10.51,24.86,11.05,24.14c17.47-0.59,37.68-7.09,54.84-12.67c-11.83-28.35-39.8-48.27-72.44-48.27
		c-32.57,0-60.5,19.85-72.37,48.11c3.93,2.36,7.24,4.36,8.06,4.81C137,168.28,137.18,171.72,137.37,175.9z"/>
	<path class="st2" d="M217.27,175.39c-21.56,0.73-21.56-15.08-11.05-24.14l-1.99-11.42c-3.99,5.8-27.99,9.19-28,9.23
		c-0.17,3.7-0.74,6.76-4.24,8.56c-0.06,0.02,17.25,32.01-0.92,50.47c6.34-25.19-10.38-47.06-10.38-47.06s-5.93-3.44-16.62,0.18
		c3.08,7.43-2.35,14.86-6.71,14.68c-0.18-4.17-0.36-7.61-1.99-8.52c-0.82-0.45-4.14-2.45-8.06-4.81
		c-3.92,9.34-6.09,19.59-6.09,30.36c0,43.34,35.13,78.47,78.46,78.47s78.47-35.13,78.47-78.47c0-10.7-2.14-20.9-6.03-30.19
		C254.95,168.29,234.74,174.81,217.27,175.39z"/>
</g>
<path class="st3" d="M117.34,157.04c0.78-3.2,0.99-7.68-1.65-9c-1.63-0.82-2.94-0.3-5.27,1.17c-2.75,1.74-4.98,2.79-7.29,1.63
	c-3.45-1.73-4.51-7.68-3.51-12.2l2.82,0.64c-0.57,1.95-1.17,7.07,1.56,8.44c1.69,0.85,3.78-0.71,5.2-1.54
	c2.58-1.5,4.52-2.77,7.15-1.45c3.19,1.59,5.16,6.39,3.81,12.75L117.34,157.04z"/>
<path class="st3" d="M120.93,133.89c-0.26-0.6-4.7-9.21-5-10.1c0.66,0.12,9.76,2.45,10.61,2.69L120.93,133.89z M126.62,144.82
	c-0.59-1.22-4.28-7.78-4.56-8.53l6.89-9.07c0.68,0.1,8.64,2.21,10.12,2.58l0.22-3.44c-4.34-0.71-21.93-5.25-27.75-6.35l-0.04,0.05
	c0.56,1.49,10.41,21.99,11.95,25.6L126.62,144.82z"/>
<path class="st3" d="M139.5,114.78c2.26,2.85,6.4,7.89,6.94,8.53l-2.49,1.98c-0.94-1.29-6.22-7.99-6.81-8.73l-2.45-3.08
	c-0.38-0.48-6.06-7.47-6.66-8.11l2.56-2.04c0.36,0.55,3.72,4.95,6.44,8.37L139.5,114.78z"/>
<path class="st3" d="M151.99,118.57c-1.03-2.54-9.01-21.4-10.48-24.86l0.06-0.03c1.33,0.66,23.52,10.4,24.97,11
	c-0.44-0.92-7.62-16.5-8.11-17.6l2.83-1.15c0.82,2.03,6.65,15.75,10.47,24.1l-0.06,0.03c-1.22-0.51-24.32-10.46-25.24-11.02
	l-0.06,0.03c0.54,1.15,7.96,17.35,8.5,18.42L151.99,118.57z"/>
<path class="st3" d="M183.01,106.9c0-0.96-1.77-11.45-2.75-17.16l-0.92-5.35c-3.72,0.64-8.27,1.61-9.09,1.89l-0.52-3.05
	c1.34,0.06,9.02-1.11,9.38-1.17l2.81-0.48c0.61-0.1,7.63-1.46,9.01-1.99l0.52,3.05c-0.48-0.06-6.48,0.78-9.2,1.25l1.02,5.92
	c1.25,7.29,3.05,15.77,3.23,16.48L183.01,106.9z"/>
<path class="st3" d="M194.95,91.49c1.67,0.04,9.21,0.14,9.8,0.1l0.09,2.29c-0.52-0.11-8.49,0.23-9.74,0.34L194.95,91.49z"/>
<path class="st3" d="M205.8,103.83c0.99-1.32,13.71-22.28,14.09-23.08l0.06,0.01c0.41,2.47,2.96,17.07,3.45,19.08
	c1.63-1.68,11.58-12.82,12.47-13.76l0.06,0.01c0.36,3.18,1.55,21.82,1.95,25.88l-3.07,0.59c-0.1-2.85-1.1-18.88-1.26-20.32
	c-1.66,1.68-10.15,11.24-12.05,13.19l-0.06-0.01c-0.85-4.29-2.54-13.87-2.97-17.42c-1.2,2.02-9.61,16.31-10.35,17.58L205.8,103.83z"
	/>
<path class="st3" d="M249.33,108.05c0.57-0.32,8.62-5.7,9.47-6.1c-0.05,0.66-1.35,9.97-1.49,10.84L249.33,108.05z M239.11,114.92
	c1.15-0.73,7.26-5.12,7.96-5.48l9.78,5.83c-0.02,0.68-1.22,8.83-1.44,10.35l3.45-0.17c0.22-4.39,2.77-22.38,3.21-28.29l-0.06-0.03
	c-1.42,0.73-20.68,12.81-24.11,14.73L239.11,114.92z"/>
<path class="st3" d="M281.16,114.67c-0.67,0.45-5.97,5.3-9.3,8.45l-7.48,7.09c0.54,0.57,3.2,3.37,5.48,5.56l-2.27,2.15
	c-0.31-0.34-6.75-7.65-7.31-8.24c1.58-1.14,7.24-6.5,7.87-7.1l3.51-3.33c0.42-0.4,6.75-6.49,7.2-7.01L281.16,114.67z"/>
<path class="st3" d="M277.22,148.08c-2.55-4.47-0.29-9.46,4.43-12.15c5.41-3.09,11.67-2.55,14.58,2.55c2.13,3.73,1.1,8.77-4.55,12
	C285.44,154.04,279.66,152.35,277.22,148.08z M274.74,149.16c4.61,8.08,13.73,6.8,18.67,3.99c6.83-3.9,8.46-10.23,5.39-15.61
	c-3.91-6.86-12.16-8.08-19.18-4.07C274.05,136.65,271.19,142.96,274.74,149.16z"/>
<path class="st4" d="M96.67,199.26c1.47,0.44,6.8,2.01,8.27,2.48c-1.08,0.58-5.77,3.33-7.22,4.14L96.67,199.26z M85.44,196.18
	c1.59,0.52,6.11,1.7,6.86,1.91l1.56,9.8c-0.51,0.39-5.2,3.15-6.76,4.09l3.81,4.34c2.63-1.89,17.54-11.39,23.18-15.29l-0.02-0.22
	c-4.05-1.67-23.38-8.46-26.05-9.43L85.44,196.18z"/>
<path class="st4" d="M102.14,238.26c-1.3,0.48-4.31,1.68-4.93,1.91c-0.73-0.82-2.29-3.34-3.28-6.08c-2.8-7.71,0.29-13.19,5.78-15.24
	c4.02-1.5,13.15-1.24,20.67,9.04l-4.76,2.97c-2.86-4.65-8.77-8.72-13.76-6.86c-2.9,1.08-4.87,4.36-3.58,7.81
	c0.3,0.81,0.59,1.59,0.89,2.08l3.93-1.47c0.99-0.37,2.01-0.78,2.64-1.05l1.83,4.9c-1.14,0.39-1.92,0.68-2.95,1.07L102.14,238.26z"/>
<path class="st4" d="M115.81,260.04c-1.15,0.78-3.79,2.65-4.33,3.02c-0.91-0.62-3.03-2.7-4.63-5.13
	c-4.56-6.83-2.86-12.88,1.99-16.18c3.56-2.42,12.47-4.32,22.23,3.86l-3.92,4.02c-3.88-3.84-10.6-6.39-14.99-3.4
	c-2.56,1.74-3.69,5.39-1.62,8.44c0.49,0.72,0.96,1.41,1.36,1.81l3.47-2.35c0.87-0.59,1.76-1.24,2.31-1.65l2.94,4.32
	c-1.01,0.65-1.7,1.12-2.61,1.73L115.81,260.04z"/>
<path class="st4" d="M126.63,279.42c-0.45-0.43-7.48-7.67-8.78-8.91c1.45-1.29,6.84-6.92,7.44-7.55l3.35-3.5
	c0.41-0.42,6.58-6.96,7.01-7.5l4.02,3.86c-0.62,0.56-5.81,5.79-8.98,9.1l-5.64,5.89c0.54,0.52,3.17,3.04,5.2,4.78L126.63,279.42z"/>
<path class="st4" d="M143.18,275.94c2.87-4.86,7.18-6.5,10.3-4.67c2.83,1.67,3.71,5.53,0.85,10.31c-3.26,5.48-7.66,5.97-10.16,4.49
	C141.16,284.31,140.57,280.37,143.18,275.94z M138.01,273.31c-3.59,6.08-2.71,12.95,3.27,16.52c8.29,4.89,15.52-0.96,18.16-5.44
	c4.22-7.15,2.56-13.54-3.2-16.94C149.23,263.31,141.62,267.2,138.01,273.31z"/>
<path class="st4" d="M160.01,298.41c0.86-1.34,11.54-20.38,13.28-23.14l0.21,0.05c0.8,3.3,3.52,14.89,4.04,16.9
	c1.6-1.82,8.89-10.93,10.56-12.92l0.21,0.05c0.73,4.67,2.94,22.55,3.38,25.48l-5.21,1.4c-0.34-2.98-1.43-15.22-1.59-16.21
	c-0.92,0.99-7.26,8.64-9.78,11.37l-0.18-0.04c-1.25-4.48-3.08-12.41-3.37-13.99l-0.06-0.01c-0.85,1.56-6.56,12.59-7.38,14.05
	L160.01,298.41z"/>
<path class="st4" d="M208.76,273.86l-5.27,3.4l-1.17-1.98l4.61-4.56L208.76,273.86z M212.96,305.14
	c-0.83,0.05-11.27,0.27-12.48,0.34c-0.01-1.94-0.45-9.72-0.5-10.55l-0.27-4.87c-0.03-0.58-0.59-9.34-0.67-10.25
	c1.33-0.08,10.76-1.15,11.8-1.32l0.38,4.68c-1.05,0.06-6.14,0.52-6.66,0.56l0.37,6.62c0.59-0.03,4.23-0.42,5.64-0.64l0.35,4.58
	c-0.74,0.04-5.11,0.14-5.76,0.17l0.35,6.22c0.78-0.04,5.16-0.22,7.04-0.5L212.96,305.14z"/>
<path class="st4" d="M222.9,303.21c-0.12-0.87-3.3-11.97-3.51-12.71l-0.81-2.88c-0.29-1.05-2.46-8.5-2.73-9.14
	c3.01-0.85,6.52-1.76,9.12-2.07c4.47-0.58,7.35,0.73,8.24,3.88c0.82,2.91-0.16,5.6-1.98,8.16c1.17,0.96,7.86,6,8.92,6.8l-3.14,4.97
	c-0.81-0.83-9.78-9.17-11.07-10.43c1.15-1.31,3.05-4.04,2.26-6.8c-0.46-1.65-1.97-3.23-6.18-2.08l2.86,10.16
	c0.38,1.33,2.96,10.18,3.17,10.69L222.9,303.21z"/>
<path class="st4" d="M248.33,283.34c-0.21-1.52-0.99-7.02-1.17-8.56c0.97,0.74,5.43,3.87,6.76,4.86L248.33,283.34z M250.19,294.83
	c-0.19-1.66-0.98-6.27-1.11-7.04l8.27-5.48c0.57,0.3,5.02,3.43,6.52,4.45l2.37-5.27c-2.81-1.61-17.63-11.23-23.53-14.75l-0.19,0.11
	c0.16,4.38,2.01,24.79,2.22,27.62L250.19,294.83z"/>
<path class="st4" d="M275.62,275.98c-0.59-0.75-5.69-6.14-8.94-9.54l-5.44-5.69c-1.68,1.61-4.73,4.77-5.35,5.51l-3.5-3.66
	c1.16-0.8,6.57-5.77,6.81-6l1.95-1.86c0.43-0.41,5.2-5.18,6.15-6.38l3.49,3.66c-0.5,0.33-4.76,4.15-5.75,5.09l5.83,6.11
	c3.63,3.79,8.24,8.4,8.79,8.89L275.62,275.98z"/>
<path class="st4" d="M290.71,259.22c-1.28-0.97-8.25-5.88-9.03-6.41l-3.23-2.25c-0.51-0.36-8.12-5.55-8.85-6.03l3.16-4.52
	c0.52,0.4,5.18,3.77,8.77,6.27l3.23,2.25c2.98,2.08,8.38,5.74,9.09,6.2L290.71,259.22z"/>
<path class="st4" d="M289.86,237.31c-5.2-2.2-7.4-6.25-5.99-9.59c1.28-3.03,4.99-4.41,10.11-2.21c5.86,2.51,6.93,6.8,5.8,9.48
	C298.42,238.21,294.6,239.31,289.86,237.31z M287.95,242.78c6.51,2.75,13.19,0.98,15.94-5.43c3.75-8.87-3-15.25-7.8-17.28
	c-7.65-3.23-13.76-0.75-16.37,5.41C276.54,232.99,281.4,240.01,287.95,242.78z"/>
<path class="st4" d="M310.61,216.13c-1.33-0.24-6.77-1.1-12.42-1.98c-5.66-0.88-11.56-1.79-13.72-2.15l-0.08-0.26
	c3.04-2.59,16.75-13.15,17.98-14.01c-1.48-0.17-14.14-1.67-15.55-1.86l0.72-4.84c2.09,0.36,6.98,1.15,12.17,1.95
	c5.18,0.82,10.63,1.62,13.87,2.07l0.08,0.26c-2.34,2.23-17.28,13.68-17.98,14.01l-0.01,0.06c1.23,0.14,14.53,1.77,15.73,1.88
	L310.61,216.13z"/>
<path class="st5" d="M304.8,256.05c-21.55,35.73-60.75,59.61-105.51,59.61c-48.84,0-91.04-28.43-110.95-69.65"/>
<polygon class="st2" points="298.57,254.18 310.34,246.35 309.52,260.46 "/>
<path class="st6" d="M193.35,315.52c-46.3-2.2-85.91-29.97-105-69.51"/>
</svg>
